<svg width="823" height="720" viewBox="0 0 823 720" fill="none" xmlns="http://www.w3.org/2000/svg">
<g clip-path="url(#clip0)">
<mask id="mask0" mask-type="alpha" maskUnits="userSpaceOnUse" x="-72" y="-70" width="923" height="790">
<path d="M-72 -69.5372H851V720H-72V-69.5372Z" fill="white"/>
</mask>
<g mask="url(#mask0)">
<path d="M438.52 827.956C528.859 826.653 616.399 784.434 687.435 721.593C738.781 676.117 783.758 617.509 801.806 546.854C819.951 476.199 797.077 415.963 748.24 367.123C703.07 322.081 637.536 318.5 587.155 281.056C550.479 253.814 525.578 195.965 482.821 184.786C443.635 174.476 407.442 194.12 375.399 221.688C343.355 249.255 317.586 270.853 286.314 299.398C261.124 322.407 232.748 340.749 202.442 353.556C147.138 376.999 81.99 384.922 43.5766 435.39C14.5253 473.703 8.54129 529.814 21.4744 578.003C34.4076 626.192 64.231 666.784 99.1698 698.15C190.281 780.093 322.315 829.692 438.52 827.956Z" fill="#E3E6E8"/>
<path d="M677.5 587.734C649.3 618.737 603.7 590.487 578.3 558.761C573.8 553.256 570.7 545.867 569.4 537.61C563.6 497.771 607 488.064 608.3 452.282C608.9 436.636 600.8 423.743 594.8 410.704C581.2 381.151 577.3 343.63 580.2 308.282C583.1 272.934 592.2 239.179 602.9 207.018C611.6 180.797 627.2 150.954 646.8 157.328C659.4 161.384 667.5 179.638 671.2 197.602C676.2 222.374 675.5 248.885 672.1 274.238C670.6 285.392 668.6 297.127 670.7 308.137C676 336.386 703.3 342.761 713.2 368.113C723.1 393.61 711.3 425.626 700.1 450.543C690.5 471.984 684.8 485.312 691 503.421C692.7 508.201 695 512.547 697.9 515.879C704 523.413 715.2 546.302 677.5 587.734Z" fill="#F3AF47"/>
<path d="M640.1 230.342C640.1 239.179 634 728.547 634 728.547L658 727.244L640.1 230.342Z" fill="#7C4A0F"/>
<path d="M641.6 573.682L592 496.901L645.9 567.163C646.8 568.177 647.2 569.916 647 571.509C646.8 573.103 646 574.406 644.9 574.986C643.8 575.565 642.6 575.131 641.8 573.972L641.6 573.682ZM637.1 353.481L617 296.982L641.1 350.294C641.9 351.308 642.2 352.901 641.8 354.205C641.4 355.654 640.4 356.523 639.4 356.378C638.3 356.233 637.5 355.219 637.2 353.626L637.1 353.481ZM642.6 471.26L693 367.968L647.5 476.04C646.6 478.068 644.8 478.793 643.4 477.489C642 476.185 641.6 473.578 642.4 471.549L642.6 471.26Z" fill="#7C4A0F"/>
<path d="M183.5 677.408C164.4 698.414 133.5 679.292 116.4 657.851C113.4 654.085 111.3 649.014 110.4 643.509C106.5 616.563 135.8 609.899 136.7 585.851C137.1 575.276 131.6 566.584 127.5 557.746C118.3 537.61 115.7 512.258 117.6 488.209C119.5 464.161 125.7 441.417 133 419.686C138.9 401.867 149.5 381.73 162.7 386.076C171.2 388.829 176.7 401.143 179.2 413.312C182.6 429.972 182.1 447.936 179.8 465.175C178.8 472.708 177.4 480.531 178.8 488.064C182.4 507.187 200.9 511.533 207.6 528.773C214.3 546.012 206.3 567.742 198.8 584.547C192.4 599.034 188.4 608.016 192.6 620.475C193.8 623.662 195.4 626.559 197.3 629.022C201.4 633.948 209 649.449 183.5 677.408Z" fill="#F8CD99"/>
<path d="M156.8 429.972C156.8 436.346 150.7 743.179 150.7 743.179L168.3 745.352L156.8 429.972Z" fill="#7C6242"/>
<path d="M161.1 615.549L196.9 560.644L158 610.913C157.1 612.072 157.1 614.101 157.9 615.404C158.7 616.708 160 616.853 161 615.694L161.1 615.549ZM154.2 519.646L139.6 477.779L157 517.328C157.4 518.487 157.1 519.791 156.4 520.515C155.7 521.239 154.7 520.95 154.2 519.936C154.3 519.936 154.2 519.646 154.2 519.646Z" fill="#7C6242"/>
<path d="M159.5 606.857L194.7 530.366C194.7 530.366 159.5 606.857 159.5 606.857Z" fill="#9C4F5F"/>
</g>
</g>
<defs>
<clipPath id="clip0">
<rect width="823" height="720" fill="white"/>
</clipPath>
</defs>
</svg>
